<svg width="176" height="180" viewBox="0 0 176 180" fill="none" xmlns="http://www.w3.org/2000/svg">
<path d="M94.2741 107.941L118.489 101.624L118.487 100.666C118.399 96.9075 118.09 82.7876 115.584 74.2432C115.178 72.7146 114.569 71.2356 113.773 69.8418C108.65 61.5047 74.8642 49.1031 74.8642 49.1031L75.9879 60.1395L98.2583 77.5794C95.6479 90.0225 94.2741 107.941 94.2741 107.941Z" fill="#757575"/>
<path opacity="0.7" d="M94.2741 107.941L118.489 101.624L118.487 100.666C118.399 96.9075 118.09 82.7876 115.584 74.2432C115.178 72.7146 114.569 71.2356 113.773 69.8418C108.65 61.5047 74.8642 49.1031 74.8642 49.1031L75.9879 60.1395L98.2583 77.5794C95.6479 90.0225 94.2741 107.941 94.2741 107.941Z" fill="white"/>
<path d="M79.8945 141.158C77.253 143.774 74.6468 146.539 72.0176 149.207C70.7083 150.563 69.3884 151.875 68.1275 153.16C66.8665 154.446 65.5325 155.698 64.3556 156.719C64.0735 156.974 63.7801 157.215 63.562 157.396C63.3439 157.577 63.1663 157.688 63.2202 157.708C63.3109 157.68 63.4054 157.662 63.5014 157.656L63.5717 157.643L63.4936 157.657L63.3374 157.687L62.7235 157.918L61.4584 158.396C59.7441 159.044 57.922 159.65 56.1027 160.302C52.4588 161.584 48.702 162.872 45.046 164.412L44.9757 164.425C44.2347 164.742 43.6346 165.289 43.2718 165.977C42.909 166.665 42.8045 167.455 42.9751 168.22C43.1457 168.986 43.5814 169.682 44.2124 170.197C44.8435 170.712 45.6331 171.016 46.4548 171.061C50.6133 171.24 54.7714 171.122 58.8936 170.707C60.9606 170.513 63.0298 170.226 65.1551 169.866C65.6862 169.767 66.2095 169.668 66.764 169.564L67.584 169.41L67.8964 169.352L68.1463 169.305C68.4715 169.197 68.7932 169.075 69.1149 168.952C69.8676 168.619 70.5948 168.239 71.2918 167.814C71.8852 167.462 72.3849 167.127 72.8786 166.801C74.7994 165.478 76.3365 164.187 77.9638 162.865C79.5911 161.542 81.0029 160.205 82.4694 158.858C85.3684 156.123 88.1293 153.392 90.7737 150.41C91.4027 149.754 91.8856 148.984 92.1947 148.144C92.5039 147.303 92.6334 146.409 92.5758 145.511C92.5181 144.613 92.2745 143.73 91.8588 142.912C91.4431 142.094 90.8634 141.357 90.153 140.744C89.4425 140.13 88.615 139.651 87.7179 139.335C86.8208 139.019 85.8716 138.871 84.9245 138.901C83.9774 138.93 83.0509 139.136 82.1979 139.507C81.3449 139.878 80.5822 140.406 79.9532 141.061L79.8945 141.158Z" fill="#757575"/>
<path opacity="0.7" d="M79.8945 141.158C77.253 143.774 74.6468 146.539 72.0176 149.207C70.7083 150.563 69.3884 151.875 68.1275 153.16C66.8665 154.446 65.5325 155.698 64.3556 156.719C64.0735 156.974 63.7801 157.215 63.562 157.396C63.3439 157.577 63.1663 157.688 63.2202 157.708C63.3109 157.68 63.4054 157.662 63.5014 157.656L63.5717 157.643L63.4936 157.657L63.3374 157.687L62.7235 157.918L61.4584 158.396C59.7441 159.044 57.922 159.65 56.1027 160.302C52.4588 161.584 48.702 162.872 45.046 164.412L44.9757 164.425C44.2347 164.742 43.6346 165.289 43.2718 165.977C42.909 166.665 42.8045 167.455 42.9751 168.22C43.1457 168.986 43.5814 169.682 44.2124 170.197C44.8435 170.712 45.6331 171.016 46.4548 171.061C50.6133 171.24 54.7714 171.122 58.8936 170.707C60.9606 170.513 63.0298 170.226 65.1551 169.866C65.6862 169.767 66.2095 169.668 66.764 169.564L67.584 169.41L67.8964 169.352L68.1463 169.305C68.4715 169.197 68.7932 169.075 69.1149 168.952C69.8676 168.619 70.5948 168.239 71.2918 167.814C71.8852 167.462 72.3849 167.127 72.8786 166.801C74.7994 165.478 76.3365 164.187 77.9638 162.865C79.5911 161.542 81.0029 160.205 82.4694 158.858C85.3684 156.123 88.1293 153.392 90.7737 150.41C91.4027 149.754 91.8856 148.984 92.1947 148.144C92.5039 147.303 92.6334 146.409 92.5758 145.511C92.5181 144.613 92.2745 143.73 91.8588 142.912C91.4431 142.094 90.8634 141.357 90.153 140.744C89.4425 140.13 88.615 139.651 87.7179 139.335C86.8208 139.019 85.8716 138.871 84.9245 138.901C83.9774 138.93 83.0509 139.136 82.1979 139.507C81.3449 139.878 80.5822 140.406 79.9532 141.061L79.8945 141.158Z" fill="white"/>
<path d="M63.2002 157.662C63.2002 157.662 69.8656 163.864 69.7497 168.353L71.1722 167.579C71.1722 167.579 68.8927 159.794 63.5519 157.351L63.2002 157.662Z" fill="#757575"/>
<path d="M43.2988 165.191L36.7372 167.255L42.2481 172.53C42.2481 172.53 47.9692 170.353 46.5758 167.576L43.2988 165.191Z" fill="#757575"/>
<path d="M32.3411 172.258L38.6569 175.312L42.1691 172.563L36.6666 167.297L32.3411 172.258Z" fill="#757575"/>
<g opacity="0.5">
<path opacity="0.5" d="M43.2578 165.176L36.7439 167.206L42.2804 172.554C42.2804 172.554 47.9565 170.403 46.543 167.599L43.2578 165.176Z" fill="white"/>
<path opacity="0.5" d="M32.3695 172.23L38.6808 175.344L42.1489 172.605L36.6258 167.273L32.3695 172.23Z" fill="white"/>
</g>
<path d="M43.3695 165.184C43.3695 165.184 46.8512 167.847 45.222 170.965L46.2048 171.148C46.2048 171.148 49.3034 168.266 44.8149 164.575L43.3695 165.184Z" fill="#757575"/>
<path opacity="0.4" d="M63.2002 157.662C63.2002 157.662 69.8656 163.864 69.7497 168.353L71.1722 167.579C71.1722 167.579 68.8927 159.794 63.5519 157.351L63.2002 157.662Z" fill="white"/>
<path opacity="0.4" d="M43.3695 165.184C43.3695 165.184 46.8512 167.847 45.222 170.965L46.2048 171.148C46.2048 171.148 49.3034 168.266 44.8149 164.575L43.3695 165.184Z" fill="white"/>
<path d="M77.0863 52.9002L77.4429 59.3493C77.516 59.6575 76.2624 60.5753 75.9262 60.6155L68.4197 61.612C68.0234 61.6403 67.627 61.5192 67.3162 61.2748C67.0054 61.0305 66.8053 60.6827 66.7591 60.3066C66.4663 57.1419 66.4525 55.6266 66.0836 51.633C65.8238 49.1827 65.0569 44.3593 65.2503 40.973C65.4437 37.5866 68.9844 37.9715 69.2128 39.4081C69.7763 42.8669 72.6664 47.4217 74.7977 49.5586C75.1759 49.9322 77.0543 52.3926 77.0863 52.9002Z" fill="#757575"/>
<path opacity="0.5" d="M77.8536 53.1617L77.1087 59.9884C77.1819 60.2967 76.2896 60.5717 75.9531 60.6119L68.4406 61.6087C68.0441 61.637 67.6473 61.5158 67.3363 61.2714C67.0252 61.027 66.8249 60.6791 66.7787 60.3029C66.4857 57.1372 66.4718 55.6215 66.1027 51.6266C65.8426 49.1756 65.0752 44.3507 65.2687 40.9633C65.4622 37.5759 69.0058 37.9609 69.2343 39.398C69.7983 42.8578 72.6907 47.414 74.8237 49.5516C75.1867 49.9282 77.7984 52.6583 77.8536 53.1617Z" fill="white"/>
<path opacity="0.1" d="M118.547 100.366C118.461 96.6195 118.154 82.5436 115.674 74.0257C114.327 77.9821 111.514 87.7604 112.903 97.0275C113.554 101.646 115.926 102.169 118.547 100.366Z" fill="#010218"/>
<path d="M97.0426 111.207C97.0426 111.207 95.7612 96.8599 110.56 91.4051C110.56 91.4051 118.461 75.8429 129.21 59.7007L112.938 24.0816L120.097 18.7314C120.097 18.7314 143.844 43.275 145.622 61.8816C147.4 80.4882 125.311 111.502 125.311 111.502L97.0426 111.207Z" fill="#757575"/>
<path opacity="0.7" d="M97.0426 111.207C97.0426 111.207 95.7612 96.8599 110.56 91.4051C110.56 91.4051 118.461 75.8429 129.21 59.7007L112.938 24.0816L120.097 18.7314C120.097 18.7314 143.844 43.275 145.622 61.8816C147.4 80.4882 125.311 111.502 125.311 111.502L97.0426 111.207Z" fill="white"/>
<path d="M118.949 91.8596C119.252 93.1495 119.032 94.4867 118.332 95.6019C117.632 96.7171 116.505 97.5274 115.178 97.8696L96.7031 102.646C95.5231 102.952 94.2573 102.869 93.1106 102.41C91.964 101.951 91.0033 101.143 90.3842 100.116C90.1672 99.7592 89.9952 99.3807 89.8717 98.9881C89.8434 98.8687 89.8151 98.7493 89.7867 98.6299C89.4819 97.3411 89.7008 96.0043 90.3992 94.8891C91.0976 93.774 92.2236 92.9635 93.5498 92.6213L112.025 87.8452C113.416 87.4895 114.914 87.6749 116.191 88.361C117.468 89.0471 118.421 90.1779 118.841 91.5058C118.885 91.6223 118.926 91.7626 118.949 91.8596Z" fill="#757575"/>
<path opacity="0.2" d="M117.666 90.4575C117.969 91.7486 117.749 93.0871 117.051 94.2039C116.352 95.3207 115.227 96.133 113.901 96.4774L95.4145 101.263C94.56 101.484 93.6556 101.501 92.7803 101.313C91.905 101.125 91.0855 100.738 90.3934 100.185C90.1763 99.8281 90.0042 99.4488 89.8806 99.0555C89.8523 98.9359 89.824 98.8162 89.7956 98.6966C89.4906 97.4054 89.7096 96.066 90.4085 94.9488C91.1073 93.8315 92.234 93.0195 93.561 92.6767L112.047 87.8916C112.902 87.6705 113.806 87.653 114.682 87.8409C115.557 88.0287 116.376 88.416 117.069 88.969C117.286 89.3261 117.458 89.7053 117.581 90.0987C117.601 90.1809 117.629 90.3005 117.666 90.4575Z" fill="white"/>
<path d="M126.687 112.417C125.999 109.745 124.438 107.324 122.228 105.501C120.018 103.678 117.274 102.547 114.387 102.27C103.873 100.916 108.037 112.185 108.037 112.185L126.444 113.174L126.687 112.417Z" fill="#757575"/>
<path opacity="0.4" d="M126.687 112.417C125.999 109.745 124.438 107.324 122.228 105.501C120.018 103.678 117.274 102.547 114.387 102.27C103.873 100.916 108.037 112.185 108.037 112.185L126.444 113.174L126.687 112.417Z" fill="white"/>
<path d="M111.213 103.51C111.213 103.51 121.569 103.887 125.374 111.159C129.178 118.43 119.388 137.76 114.357 141.791C109.327 145.821 87.0854 152.974 83.6208 150.372C71.6838 141.411 87.6629 120.25 93.5573 114.661C99.4518 109.071 111.213 103.51 111.213 103.51Z" fill="#757575"/>
<path opacity="0.7" d="M83.6229 150.386C83.786 150.505 83.9675 150.599 84.1604 150.664C86.1994 151.409 91.1589 150.597 96.5372 149.119C103.303 147.257 110.739 144.352 113.859 142.162L114.358 141.798C118.237 138.67 124.966 126.415 126.075 117.66C126.404 115.081 126.235 112.804 125.339 111.157C121.538 103.901 111.179 103.508 111.179 103.508C111.179 103.508 99.4393 109.127 93.5222 114.69C87.6052 120.253 71.6808 141.403 83.6229 150.386Z" fill="white"/>
<path opacity="0.1" d="M83.8981 150.636C85.9305 151.379 90.8742 150.569 96.2352 149.096C104.778 135.434 96.2214 127.776 96.2214 127.776C86.5254 128.737 82.8046 142.404 83.8981 150.636Z" fill="#010218"/>
<path d="M118.139 100.45C118.139 100.45 114.585 92.6678 112.407 92.0699C110.23 91.472 89.8263 97.1276 87.3887 98.5822C84.9511 100.037 73.3999 114.702 73.2359 118.253C73.0719 121.804 79.5216 129.748 79.5216 129.748C79.5216 129.748 95.0945 129.786 100.6 126.241C106.105 122.695 117.627 105.172 118.139 100.45Z" fill="#757575"/>
<path opacity="0.5" d="M79.5211 129.741C79.5211 129.741 95.0921 129.771 100.597 126.226C106.102 122.68 117.637 105.179 118.132 100.452C118.132 100.452 114.547 92.6757 112.401 92.0409C110.256 91.4062 89.83 97.1045 87.3829 98.5531C84.9357 100.002 73.396 114.681 73.238 118.222C73.2736 119.289 73.5522 120.343 74.0547 121.311C75.7624 125.099 79.5211 129.741 79.5211 129.741Z" fill="white"/>
<path opacity="0.2" d="M74.0666 121.459C76.1753 121.444 89.8328 121.226 94.9163 117.944C100.422 114.381 111.988 96.8587 112.49 92.1076C110.342 91.4782 89.8755 97.1877 87.4237 98.6411C84.972 100.095 73.4102 114.822 73.2519 118.375C73.2887 119.44 73.5666 120.492 74.0666 121.459Z" fill="white"/>
<path d="M93.8784 147.092C100.411 138.989 98.4438 127.344 89.4844 121.081C80.5251 114.819 67.9664 116.311 61.4338 124.415C54.9012 132.518 56.8684 144.163 65.8277 150.425C74.7871 156.688 87.3458 155.195 93.8784 147.092Z" fill="#263238"/>
<path opacity="0.7" d="M93.8784 147.092C100.411 138.989 98.4438 127.344 89.4844 121.081C80.5251 114.819 67.9664 116.311 61.4338 124.415C54.9012 132.518 56.8684 144.163 65.8277 150.425C74.7871 156.688 87.3458 155.195 93.8784 147.092Z" fill="white"/>
<path opacity="0.2" d="M88.1002 151.046C91.2511 149.177 93.7182 146.453 95.1892 143.216C96.6603 139.98 97.0692 136.378 96.3643 132.865C95.6594 129.351 93.8724 126.086 91.2292 123.48C88.586 120.875 85.2055 119.047 81.5153 118.228C77.8251 117.409 73.9909 117.635 70.4979 118.878C67.0049 120.122 64.0098 122.326 61.8917 125.212C59.7736 128.099 58.6276 131.538 58.5986 135.094C58.5696 138.65 59.659 142.165 61.7289 145.192C64.504 149.247 68.8396 152.141 73.7839 153.238C78.7283 154.336 83.8772 153.547 88.1002 151.046Z" fill="#010218"/>
<path opacity="0.3" d="M98.2292 137.045C98.4029 129.718 93.6249 123.56 87.5572 123.291C81.4895 123.021 76.4298 128.741 76.256 136.068C76.0823 143.394 80.8603 149.552 86.928 149.822C92.9957 150.092 98.0554 144.371 98.2292 137.045Z" fill="#010218"/>
<path d="M82.505 144.306C82.505 144.306 86.9355 147.018 87.8138 145.966C88.6922 144.915 91.4063 147.137 92.802 145.326C94.1977 143.514 96.5937 138.537 93.8889 134.785C91.1841 131.033 81.4311 138.128 82.505 144.306Z" fill="#263238"/>
<path opacity="0.8" d="M82.505 144.306C82.505 144.306 86.9432 147.016 87.8138 145.966C87.9525 145.832 88.1273 145.734 88.3206 145.685C88.514 145.635 88.7191 145.634 88.9157 145.683C90.1059 145.838 91.7976 146.632 92.802 145.326C94.1994 143.521 96.5859 138.538 93.8888 134.785C92.7333 133.173 90.2762 133.564 87.9255 135.014C87.2904 135.409 86.6927 135.853 86.1388 136.344C83.8734 138.357 82.1268 141.253 82.4509 143.977C82.4946 144.092 82.4821 144.21 82.505 144.306Z" fill="white"/>
<path opacity="0.2" d="M82.4897 144.323C82.4897 144.323 86.9109 147.024 87.7781 145.977C87.9163 145.843 88.0904 145.746 88.283 145.696C88.4756 145.647 88.68 145.646 88.8758 145.695C92.5924 142.445 89.2243 136.963 87.8894 135.06C87.2567 135.453 86.6614 135.897 86.1096 136.386C84.588 138.778 83.3559 141.33 82.4358 143.994C82.4794 144.109 82.4669 144.227 82.4897 144.323Z" fill="#010218"/>
<path d="M74.527 145.659C74.6603 145.646 74.7917 145.622 74.9196 145.586C78.5588 144.726 75.8683 137.895 73.1299 134.216C71.9387 132.585 70.6447 131.977 69.6567 132.117C68.3941 132.285 67.6071 133.644 67.8429 135.654C68.0178 137.001 69.3563 138.643 69.4113 139.553C69.4664 140.462 71.1741 145.998 74.527 145.659Z" fill="#263238"/>
<path opacity="0.9" d="M74.527 145.659C74.6603 145.646 74.7917 145.622 74.9196 145.586C78.5588 144.726 75.8683 137.895 73.1299 134.216C71.9387 132.585 70.6447 131.977 69.6567 132.117C68.3941 132.285 67.6071 133.644 67.8429 135.654C68.0178 137.001 69.3563 138.643 69.4113 139.553C69.4664 140.462 71.1741 145.998 74.527 145.659Z" fill="white"/>
<path opacity="0.2" d="M74.5365 145.645C74.6694 145.632 74.8004 145.607 74.9279 145.571C78.5563 144.712 75.8739 137.888 73.1437 134.213C71.956 132.583 70.6659 131.976 69.6808 132.116C69.4522 132.357 69.2455 132.616 69.0627 132.891C68.1151 134.272 70.3945 138.514 70.6724 139.687C70.8432 140.78 72.1126 144.279 74.5365 145.645Z" fill="#010218"/>
<path d="M85.0807 131.205C87.7712 136.254 89.6121 139.092 88.5701 142.94C86.9962 148.734 79.2913 149.777 75.0702 145.538C71.2728 141.72 67.4943 134.108 71.3308 129.559C72.1773 128.552 73.2864 127.772 74.5542 127.29C75.8221 126.809 77.2075 126.643 78.5808 126.807C79.9541 126.972 81.2707 127.461 82.4074 128.231C83.544 129 84.4638 130.023 85.0807 131.205Z" fill="#EBB376"/>
<path d="M78.1554 136.623C78.3962 137.023 78.355 137.461 78.1052 137.6C77.8555 137.739 77.4116 137.538 77.1863 137.135C76.961 136.731 76.9868 136.296 77.2366 136.157C77.4863 136.018 77.8925 136.265 78.1554 136.623Z" fill="#263238"/>
<path d="M73.3193 139.124C73.5583 139.517 73.5188 139.962 73.2691 140.101C73.0193 140.24 72.5737 140.032 72.3484 139.628C72.1231 139.225 72.1489 138.79 72.4004 138.658C72.6519 138.526 73.0725 138.732 73.3193 139.124Z" fill="#263238"/>
<path d="M74.9585 138.507C75.1668 139.945 75.1652 141.398 74.9537 142.825C75.3511 142.86 75.7496 142.816 76.1228 142.694C76.4961 142.573 76.8357 142.377 77.1192 142.119L74.9585 138.507Z" fill="#D58745"/>
<path d="M76.0405 134.103C76.0799 134.072 76.1269 134.051 76.1773 134.042C76.2277 134.032 76.2801 134.034 76.3301 134.048C76.6623 134.187 77.0217 134.25 77.3798 134.234C77.7379 134.218 78.0849 134.123 78.3931 133.957C78.4552 133.916 78.5322 133.901 78.6074 133.915C78.6826 133.929 78.7499 133.97 78.7946 134.029C78.8174 134.058 78.8341 134.09 78.8435 134.124C78.8529 134.159 78.8548 134.194 78.8493 134.229C78.8437 134.264 78.8307 134.297 78.8111 134.326C78.7915 134.356 78.7657 134.381 78.7352 134.4C78.3491 134.621 77.9106 134.749 77.4561 134.775C77.0016 134.801 76.5441 134.723 76.1215 134.548C76.052 134.52 75.9959 134.468 75.9651 134.402C75.9343 134.337 75.9312 134.263 75.9565 134.197C75.9786 134.161 76.007 134.129 76.0405 134.103Z" fill="#263238"/>
<path d="M71.0157 136.296C71.0653 136.271 71.1219 136.26 71.1787 136.265C71.2158 136.268 71.2522 136.278 71.2857 136.294C71.3192 136.31 71.3491 136.332 71.3736 136.359C71.3982 136.386 71.417 136.417 71.4288 136.451C71.4405 136.485 71.4451 136.52 71.4423 136.555C71.42 136.976 71.2911 137.384 71.0664 137.744C70.8418 138.103 70.5278 138.404 70.1507 138.622C70.0837 138.653 70.0066 138.658 69.9342 138.637C69.8619 138.617 69.7995 138.572 69.7591 138.511C69.7406 138.48 69.7288 138.446 69.7242 138.411C69.7197 138.376 69.7226 138.341 69.7328 138.307C69.7429 138.274 69.7601 138.243 69.7834 138.216C69.8066 138.189 69.8355 138.167 69.8682 138.151C70.1676 137.977 70.4158 137.736 70.5916 137.448C70.7674 137.16 70.8655 136.834 70.8775 136.499C70.8789 136.456 70.8924 136.414 70.9167 136.379C70.941 136.343 70.9752 136.314 71.0157 136.296Z" fill="#263238"/>
<path d="M82.0101 143.914C81.9049 144.019 81.7842 144.127 81.6617 144.227L78.6159 143.422C78.6159 143.422 78.6818 143.255 78.802 143.009C79.1863 142.164 80.1561 140.329 81.3873 140.207C81.5299 140.201 81.6731 140.208 81.815 140.227C82.3356 140.282 82.8231 140.512 83.1887 140.874C83.7113 141.464 83.6849 142.411 82.0101 143.914Z" fill="#263238"/>
<path d="M81.8434 140.275L79.1847 143.094L78.8076 143.049C79.1924 142.203 80.1633 140.365 81.396 140.243C81.5455 140.239 81.6954 140.25 81.8434 140.275Z" fill="white"/>
<path d="M82.0229 143.886C81.2466 142.901 82.413 141.583 83.2194 140.894C83.715 141.447 83.6887 142.39 82.0229 143.886Z" fill="#010218"/>
<path d="M82.1345 147.077L81.727 146.421C82.3867 146.059 84.2001 144.957 84.6881 144.18C85.4414 142.436 86.0594 140.639 86.5376 138.804L87.3111 139.021C87.2565 139.2 86.0449 143.51 85.3898 144.572C84.7347 145.635 82.2655 147.014 82.1345 147.077Z" fill="#263238"/>
<path d="M82.1251 147.212L82.8726 146.763C82.9983 146.689 83.0865 146.57 83.1177 146.432C83.149 146.294 83.1208 146.149 83.0394 146.028C82.9545 145.908 82.8244 145.824 82.6769 145.792C82.5295 145.761 82.3763 145.784 82.2504 145.859L81.5011 146.301C81.3771 146.376 81.2909 146.495 81.2612 146.632C81.2314 146.77 81.2605 146.914 81.3421 147.034C81.424 147.155 81.5524 147.242 81.6992 147.275C81.8459 147.308 81.9991 147.286 82.1251 147.212Z" fill="#263238"/>
<path d="M89.6647 134.143C89.8305 134.826 89.8517 135.53 89.727 136.213C89.6023 136.896 89.3341 137.545 88.9382 138.122C87.8712 139.652 86.0165 138.993 85.2207 137.382C84.4944 135.927 84.1811 133.387 85.7857 132.418C86.1398 132.214 86.5442 132.098 86.9629 132.079C87.3816 132.06 87.8016 132.14 88.1855 132.311C88.5694 132.481 88.9053 132.738 89.1634 133.058C89.4215 133.377 89.5937 133.75 89.6647 134.143Z" fill="#EBB376"/>
<path d="M71.9913 131.401C73.58 130.563 77.8837 129.008 79.0857 129.686C80.2878 130.365 84.8306 140.325 87.2023 140.522C89.5741 140.719 92.6684 136.51 91.595 133.437C91.0297 131.679 89.7813 130.173 88.1045 129.226C88.1045 129.226 85.5516 121.101 76.6685 123.429C67.7854 125.756 67.2637 133.19 67.9728 135.621C68.7877 133.832 70.1962 132.353 71.9913 131.401Z" fill="#263238"/>
<path opacity="0.9" d="M71.9913 131.401C73.58 130.563 77.8837 129.008 79.0857 129.686C80.2878 130.365 84.8306 140.325 87.2023 140.522C89.5741 140.719 92.6684 136.51 91.595 133.437C91.0297 131.679 89.7813 130.173 88.1045 129.226C88.1045 129.226 85.5516 121.101 76.6685 123.429C67.7854 125.756 67.2637 133.19 67.9728 135.621C68.7877 133.832 70.1962 132.353 71.9913 131.401Z" fill="white"/>
<path d="M62.5648 122.295L63.6857 121.762C66.6198 119.128 70.2744 117.311 74.2641 116.502C81.1521 115.004 92.7907 119.061 97.2748 130.301C97.4499 130.73 97.593 131.126 97.7136 131.496C97.8369 131.823 97.9405 132.156 98.0238 132.493L98.0326 132.53C98.1488 132.948 98.231 133.372 98.2785 133.8C99.2976 140.87 94.462 147.241 94.462 147.241C92.6572 149.704 90.3459 151.793 87.6603 153.388L86.1417 152.864C97.4742 145.769 92.4842 133.153 92.4842 133.153L86.4353 126.333C86.4353 126.333 72.1858 116.213 60.5361 125.924L59.8764 125.57C60.6632 124.401 61.563 123.305 62.5648 122.295Z" fill="#757575"/>
<path opacity="0.7" d="M59.853 125.575L60.5032 125.922C72.1625 116.217 86.4045 126.339 86.4045 126.339L92.4535 133.159C92.4535 133.159 97.4204 145.779 86.1419 152.864L87.7011 153.388C88.8235 152.715 89.8838 151.955 90.8715 151.116C92.2575 149.982 93.4751 148.678 94.4934 147.235C94.4934 147.235 99.3292 140.864 98.31 133.795C98.2664 133.366 98.1842 132.941 98.0641 132.524C98.057 132.51 98.0534 132.495 98.0536 132.48C97.9711 132.133 97.8533 131.809 97.7373 131.492C97.6212 131.175 97.4754 130.733 97.2985 130.296C92.8203 119.047 81.1755 114.999 74.2875 116.497C70.3283 117.306 66.6977 119.102 63.7682 121.7L63.7089 121.758L62.588 122.291C61.5685 123.3 60.6529 124.4 59.853 125.575Z" fill="white"/>
<path opacity="0.2" d="M59.8201 125.589L60.4698 125.937C72.1222 116.236 86.3557 126.353 86.3557 126.353L92.4011 133.17C92.4011 133.17 97.365 145.784 86.0933 152.866L87.6515 153.39C88.7732 152.717 89.8329 151.957 90.82 151.119C93.4922 147.648 96.9478 137.774 93.3194 133.421C91.1184 130.821 89.1938 128.026 87.5747 125.078C87.5747 125.078 75.0831 116.528 63.6942 121.724C63.306 121.897 62.9094 122.102 62.5146 122.314C61.5096 123.323 60.6076 124.419 59.8201 125.589Z" fill="#010218"/>
<path d="M87.1583 125.223C88.3784 124.503 90.0483 124.72 91.6264 125.64C93.0519 126.041 94.2865 126.919 95.0957 128.107C95.905 129.295 96.2327 130.71 96.0166 132.084C96.2398 133.803 95.7472 135.303 94.529 136.031C92.4721 137.247 89.1617 135.814 87.1187 132.805C85.0756 129.797 85.1163 126.467 87.1583 125.223Z" fill="#757575"/>
<path opacity="0.5" d="M87.1583 125.223C88.3784 124.503 90.0483 124.72 91.6264 125.64C93.0519 126.041 94.2865 126.919 95.0957 128.107C95.905 129.295 96.2327 130.71 96.0166 132.084C96.2398 133.803 95.7472 135.303 94.529 136.031C92.4721 137.247 89.1617 135.814 87.1187 132.805C85.0756 129.797 85.1163 126.467 87.1583 125.223Z" fill="white"/>
<path opacity="0.2" d="M89.9953 131.167C91.3956 133.211 93.6895 134.219 95.1142 133.375C96.5389 132.532 96.5371 130.18 95.1315 128.114C93.7259 126.048 91.4372 125.062 90.0203 125.904C88.6033 126.746 88.5897 129.101 89.9953 131.167Z" fill="white"/>
<path opacity="0.2" d="M60.8385 131.05C62.2513 130.974 63.6714 131 65.086 131.13C66.2163 128.661 67.7826 126.401 69.7195 124.443C69.7195 124.443 67.4069 123.9 63.6217 125.524C62.3365 127.179 61.3929 129.052 60.8385 131.05Z" fill="white"/>
<path opacity="0.2" d="M63.0067 144.87C62.3572 140.632 62.8184 136.336 64.3492 132.365C62.966 132.074 61.6316 131.82 60.5552 131.64C59.7055 135.43 59.6038 140.449 63.0067 144.87Z" fill="white"/>
<path d="M122.093 20.3641L115.309 26.7125C115.256 26.7683 115.192 26.8132 115.119 26.8446C115.047 26.876 114.968 26.8932 114.888 26.8953C114.807 26.8975 114.727 26.8844 114.651 26.8569C114.575 26.8295 114.505 26.7881 114.446 26.7353L108.637 21.826C108.35 21.5536 108.185 21.1884 108.179 20.8096C108.172 20.4307 108.324 20.0689 108.602 19.8027C111.008 17.6235 112.282 16.698 115.324 13.9134C117.167 12.2023 120.62 8.65392 123.533 6.69604C126.447 4.73817 128.503 7.57159 127.459 8.64687C124.99 11.2084 123.169 16.1493 122.827 19.0458C122.752 19.5559 122.492 20.0212 122.093 20.3641Z" fill="#757575"/>
<path opacity="0.5" d="M122.093 20.3641L115.309 26.7125C115.256 26.7683 115.192 26.8132 115.119 26.8446C115.047 26.876 114.968 26.8932 114.888 26.8953C114.807 26.8975 114.727 26.8844 114.651 26.8569C114.575 26.8295 114.505 26.7881 114.446 26.7353L108.637 21.826C108.35 21.5536 108.185 21.1884 108.179 20.8096C108.172 20.4307 108.324 20.0689 108.602 19.8027C111.008 17.6235 112.282 16.698 115.324 13.9134C117.167 12.2023 120.62 8.65392 123.533 6.69604C126.447 4.73817 128.503 7.57159 127.459 8.64687C124.99 11.2084 123.169 16.1493 122.827 19.0458C122.752 19.5559 122.492 20.0212 122.093 20.3641Z" fill="white"/>
<path d="M122.593 19.3652L123.571 20.8015L114.523 27.5337L113.699 26.3321L122.593 19.3652Z" fill="#757575"/>
<path d="M74.6712 49.2428C74.6712 49.2428 78.719 56.0105 75.5652 60.8376L77.1768 61.4292C77.1768 61.4292 81.0629 55.5379 76.5108 49.7837L74.6712 49.2428Z" fill="#757575"/>
<path d="M129.147 60.1108L129.106 58.5558C129.106 58.5558 134.807 52.9032 145.024 55.9326L145.782 59.1341C145.782 59.1341 136.892 55.425 129.147 60.1108Z" fill="#757575"/>
<path d="M112.815 67.9216C112.815 67.9216 107.022 80.0802 98.1998 78.4097L97.5816 76.9758C97.5816 76.9758 105.47 78.1783 110.789 66.3565L112.815 67.9216Z" fill="#757575"/>
<path opacity="0.1" d="M113.93 141.925L114.428 141.562C118.302 138.439 125.02 126.204 126.127 117.463C121.751 119.531 110.612 125.031 107.702 129.068C104.255 133.846 108.326 141.602 113.93 141.925Z" fill="#010218"/>
<path opacity="0.4" d="M74.6712 49.2428C74.6712 49.2428 78.719 56.0105 75.5652 60.8376L77.1768 61.4292C77.1768 61.4292 81.0629 55.5379 76.5108 49.7837L74.6712 49.2428Z" fill="white"/>
<path opacity="0.4" d="M112.815 67.9216C112.815 67.9216 107.022 80.0802 98.1998 78.4097L97.5816 76.9758C97.5816 76.9758 105.47 78.1783 110.789 66.3565L112.815 67.9216Z" fill="white"/>
<path opacity="0.4" d="M122.593 19.3652L123.571 20.8015L114.523 27.5337L113.699 26.3321L122.593 19.3652Z" fill="white"/>
<path opacity="0.4" d="M129.147 60.1108L129.106 58.5558C129.106 58.5558 134.807 52.9032 145.024 55.9326L145.782 59.1341C145.782 59.1341 136.892 55.425 129.147 60.1108Z" fill="white"/>
<path d="M124.898 128.071C124.642 128.119 124.375 128.085 124.138 127.974C123.9 127.863 123.707 127.681 123.586 127.457C123.466 127.234 123.427 126.98 123.474 126.738C123.521 126.495 123.653 126.276 123.847 126.115C126.322 124.117 127.379 121.934 127.096 119.489C126.258 112.059 113.452 104.811 113.321 104.736C113.172 104.668 113.037 104.572 112.927 104.453C112.817 104.335 112.734 104.197 112.682 104.048C112.631 103.898 112.612 103.741 112.628 103.587C112.644 103.432 112.693 103.284 112.773 103.15C112.854 103.016 112.963 102.901 113.094 102.811C113.225 102.72 113.376 102.658 113.536 102.627C113.696 102.595 113.862 102.596 114.023 102.629C114.184 102.662 114.338 102.726 114.473 102.818C115.048 103.139 128.469 110.747 129.441 119.316C129.8 122.49 128.463 125.355 125.403 127.831C125.26 127.95 125.086 128.033 124.898 128.071Z" fill="#757575"/>
<path d="M124.413 132.617C124.206 132.654 123.99 132.637 123.788 132.569C123.587 132.5 123.406 132.382 123.266 132.227C123.126 132.072 123.031 131.886 122.992 131.687C122.952 131.488 122.969 131.284 123.04 131.097C127.934 118.596 111.446 111.387 110.741 111.09C110.597 111.029 110.467 110.942 110.358 110.834C110.249 110.727 110.163 110.6 110.104 110.462C110.046 110.324 110.016 110.177 110.017 110.03C110.018 109.882 110.05 109.737 110.111 109.603C110.171 109.469 110.259 109.348 110.37 109.248C110.481 109.147 110.612 109.069 110.756 109.017C110.9 108.965 111.054 108.941 111.21 108.947C111.365 108.952 111.519 108.986 111.662 109.047C111.85 109.127 130.931 117.443 125.263 131.928C125.196 132.103 125.084 132.259 124.935 132.379C124.787 132.5 124.607 132.581 124.413 132.617Z" fill="#757575"/>
<path d="M114.332 141.259C117.83 139.763 121.394 138.129 124.889 136.587C126.632 135.797 128.376 135.046 130.075 134.311C131.774 133.577 133.515 132.881 135.024 132.346C135.393 132.214 135.78 132.086 136.039 132.006C136.298 131.926 136.522 131.868 136.48 131.829C136.4 131.843 136.317 131.845 136.236 131.836L136.166 131.85L136.244 131.835L136.408 131.804L137.071 131.804L138.454 131.809C140.32 131.817 142.264 131.873 144.21 131.944C148.142 132.04 152.19 132.177 156.235 132.024L156.297 132.013C157.119 131.981 157.898 131.687 158.509 131.179C159.12 130.671 159.529 129.978 159.669 129.21C159.808 128.443 159.672 127.646 159.281 126.947C158.889 126.248 158.266 125.687 157.511 125.355C153.666 123.718 149.703 122.36 145.657 121.294C143.636 120.736 141.58 120.271 139.438 119.862C138.897 119.752 138.367 119.657 137.802 119.583L136.955 119.461L136.744 119.431L136.642 119.45L136.385 119.436C136.039 119.423 135.686 119.419 135.335 119.423C134.489 119.46 133.647 119.554 132.817 119.702C132.12 119.833 131.518 119.947 130.923 120.059C128.597 120.599 126.6 121.249 124.587 121.902C122.575 122.555 120.679 123.288 118.774 124.014C114.966 125.514 111.32 127.077 107.663 128.9C105.957 129.685 104.669 131.091 104.08 132.809C103.492 134.526 103.653 136.415 104.526 138.059C105.4 139.703 106.915 140.968 108.739 141.575C110.563 142.182 112.546 142.083 114.251 141.298L114.332 141.259Z" fill="#757575"/>
<path opacity="0.7" d="M114.332 141.259C117.83 139.763 121.394 138.129 124.889 136.587C126.632 135.797 128.376 135.046 130.075 134.311C131.774 133.577 133.515 132.881 135.024 132.346C135.393 132.214 135.78 132.086 136.039 132.006C136.298 131.926 136.522 131.868 136.48 131.829C136.4 131.843 136.317 131.845 136.236 131.836L136.166 131.85L136.244 131.835L136.408 131.804L137.071 131.804L138.454 131.809C140.32 131.817 142.264 131.873 144.21 131.944C148.142 132.04 152.19 132.177 156.235 132.024L156.297 132.013C157.119 131.981 157.898 131.687 158.509 131.179C159.12 130.671 159.529 129.978 159.669 129.21C159.808 128.443 159.672 127.646 159.281 126.947C158.889 126.248 158.266 125.687 157.511 125.355C153.666 123.718 149.703 122.36 145.657 121.294C143.636 120.736 141.58 120.271 139.438 119.862C138.897 119.752 138.367 119.657 137.802 119.583L136.955 119.461L136.744 119.431L136.642 119.45L136.385 119.436C136.039 119.423 135.686 119.419 135.335 119.423C134.489 119.46 133.647 119.554 132.817 119.702C132.12 119.833 131.518 119.947 130.923 120.059C128.597 120.599 126.6 121.249 124.587 121.902C122.575 122.555 120.679 123.288 118.774 124.014C114.966 125.514 111.32 127.077 107.663 128.9C105.957 129.685 104.669 131.091 104.08 132.809C103.492 134.526 103.653 136.415 104.526 138.059C105.4 139.703 106.915 140.968 108.739 141.575C110.563 142.182 112.546 142.083 114.251 141.298L114.332 141.259Z" fill="white"/>
<path d="M156.614 126.128L163.245 124.269L162.229 131.472C162.229 131.472 156.194 132.795 155.523 129.808L156.614 126.128Z" fill="#757575"/>
<path d="M170.007 125.863L166.903 131.711L162.284 131.373L163.299 124.181L170.007 125.863Z" fill="#757575"/>
<g opacity="0.5">
<path opacity="0.5" d="M156.607 126.093L163.19 124.269L162.245 131.507C162.245 131.507 156.251 132.797 155.555 129.787L156.607 126.093Z" fill="white"/>
<path opacity="0.5" d="M169.967 125.881L166.934 131.737L162.337 131.365L163.28 124.145L169.967 125.881Z" fill="white"/>
</g>
<path d="M158.61 125.581C158.61 125.581 155.349 128.114 157.312 131.504L155.735 131.669C155.735 131.669 153.007 128.491 157.608 125.108L158.61 125.581Z" fill="#757575"/>
<path d="M108.998 128.274C108.998 128.274 100.626 138.205 113.294 141.586L112.067 142.315C112.067 142.315 105.8 143.216 104.09 136.657C102.412 130.269 108.998 128.274 108.998 128.274Z" fill="#757575"/>
<path d="M135.409 119.566C135.409 119.566 132.936 124.576 136.527 131.716L135.633 132.039C134.567 130.138 133.901 128.064 133.673 125.938C133.446 123.812 133.661 121.675 134.307 119.653L135.409 119.566Z" fill="#757575"/>
<path opacity="0.4" d="M158.61 125.581C158.61 125.581 155.349 128.114 157.312 131.504L155.735 131.669C155.735 131.669 153.007 128.491 157.608 125.108L158.61 125.581Z" fill="white"/>
<path opacity="0.4" d="M108.998 128.274C108.998 128.274 100.626 138.205 113.294 141.586L112.067 142.315C112.067 142.315 105.8 143.216 104.09 136.657C102.412 130.269 108.998 128.274 108.998 128.274Z" fill="white"/>
<path opacity="0.4" d="M135.409 119.566C135.409 119.566 132.936 124.576 136.527 131.716L135.633 132.039C134.567 130.138 133.901 128.064 133.673 125.938C133.446 123.812 133.661 121.675 134.307 119.653L135.409 119.566Z" fill="white"/>
<path d="M107.171 96.1745L94.8322 113.476L89.3256 114.507L101.914 97.1592C101.914 97.1592 104.621 94.588 107.171 96.1745Z" fill="#757575"/>
<path opacity="0.2" d="M107.171 96.1745L94.8322 113.476C93.9244 112.963 92.8561 112.785 91.8371 112.976C90.8181 113.167 89.9222 113.713 89.3256 114.507L101.914 97.1592C101.914 97.1592 104.621 94.588 107.171 96.1745Z" fill="white"/>
<path d="M90.0124 100.899C89.8042 101.104 89.5756 101.29 89.3296 101.453C88.9092 101.728 88.4376 101.926 87.9375 102.04C87.3604 102.148 86.8867 102.074 86.6626 101.783C86.4386 101.492 86.6005 100.803 87.109 100.235C87.3461 99.9834 87.6161 99.7611 87.9127 99.5733C88.2823 99.321 88.699 99.1353 89.1428 99.0252C89.7855 98.8505 90.3313 98.9187 90.5719 99.2454C90.8126 99.5721 90.6134 100.276 90.0124 100.899Z" fill="#263238"/>
<path d="M37.423 53.3881L37.2723 53.0289C37.2723 53.0289 39.0288 52.3975 39.4024 51.2969L39.782 51.4195C39.3439 52.6948 37.4975 53.3586 37.423 53.3881Z" fill="white"/>
<path d="M37.6973 54.2434L37.4178 53.9607C38.7389 52.8098 40.3108 51.9454 42.0292 51.425L42.1177 51.7981C40.472 52.3072 38.9663 53.1401 37.6973 54.2434Z" fill="white"/>
<path d="M37.7293 54.5158L37.4773 54.2109C39.6569 52.6326 40.8844 52.9806 40.9368 52.9942L40.8268 53.3596C40.8268 53.3596 39.7187 53.0674 37.7293 54.5158Z" fill="white"/>
<path d="M90.0036 101.441C89.7966 101.644 89.5694 101.829 89.3248 101.991C88.9069 102.264 88.4381 102.461 87.941 102.574C87.7572 102.108 87.4943 101.48 87.1405 100.777C86.0784 98.471 84.3883 96.4595 82.2468 94.9522C75.8732 90.9054 69.5685 91.6706 62.8958 92.4893C56.5135 93.269 49.9106 94.0746 42.9544 90.6756C35.8607 87.21 30.8114 79.1676 30.0739 70.187C29.4185 62.1297 32.3284 55.2363 37.8667 51.7289L39.2305 53.6128C34.3955 56.6729 31.8602 62.8267 32.4536 70.0799C33.1251 78.2726 37.6575 85.573 44.0049 88.6936C50.3523 91.8142 56.2293 91.0214 62.5281 90.265C69.3438 89.4349 76.4034 88.5745 83.5488 93.1078C85.9689 94.7856 87.8978 97.0222 89.1426 99.5938C89.5031 100.257 89.7885 100.912 90.0036 101.441Z" fill="#263238"/>
<g opacity="0.5">
<path opacity="0.5" d="M89.998 101.76C89.7944 101.963 89.5706 102.146 89.3293 102.308C88.917 102.579 88.4533 102.773 87.9609 102.883C87.774 102.414 87.5069 101.782 87.149 101.073C86.0725 98.7507 84.3754 96.7193 82.2348 95.1909C75.8682 91.0828 69.6157 91.806 62.9984 92.5804C56.669 93.3177 50.1209 94.0794 43.1819 90.6175C36.1059 87.0878 31.016 78.978 30.1983 69.9569C29.4709 61.8635 32.2944 54.9638 37.7599 51.4822L39.1319 53.3831C34.3605 56.4208 31.9018 62.5806 32.5601 69.8664C33.3046 78.096 37.8743 85.4572 44.2061 88.6352C50.5379 91.8132 56.3655 91.0592 62.6121 90.3448C69.3713 89.56 76.3723 88.7466 83.5099 93.3485C85.9287 95.0501 87.8652 97.3092 89.1256 99.8997C89.4898 100.568 89.7794 101.228 89.998 101.76Z" fill="white"/>
</g>
</svg>
