<svg xmlns="http://www.w3.org/2000/svg" width="28" height="25" fill="none"><g filter="url(#a)"><path fill="#dbcc28" d="m8.162 18.932 13.263-7.285-8.656-.795 3.459-7.465-12.231 8.031 7.52.69zm.542-5.71-6.46-.593q-.88-.081-1.158-.593-.277-.513.343-.902l14.897-9.817a2 2 0 0 1 .917-.306q.515-.049 1.031.124.517.174.689.48a.67.67 0 0 1 .023.638l-3.415 7.485 7.76.712q.909.084 1.16.632.253.549-.442.933L7.996 20.831a2.1 2.1 0 0 1-.916.25 2.3 2.3 0 0 1-.954-.153q-.445-.175-.633-.465a.61.61 0 0 1-.034-.62z"/></g><defs><filter id="a" width="27.559" height="24.083" x="0" y="0" color-interpolation-filters="sRGB" filterUnits="userSpaceOnUse"><feFlood flood-opacity="0" result="BackgroundImageFix"/><feColorMatrix in="SourceAlpha" result="hardAlpha" values="0 0 0 0 0 0 0 0 0 0 0 0 0 0 0 0 0 0 127 0"/><feOffset dx="1" dy="1"/><feGaussianBlur stdDeviation="1"/><feComposite in2="hardAlpha" operator="out"/><feColorMatrix values="0 0 0 0 0 0 0 0 0 0 0 0 0 0 0 0 0 0 0.25 0"/><feBlend in2="BackgroundImageFix" result="effect1_dropShadow_2_2479"/><feBlend in="SourceGraphic" in2="effect1_dropShadow_2_2479" result="shape"/></filter></defs></svg>