<svg xmlns="http://www.w3.org/2000/svg" width="26" height="28" fill="none"><g filter="url(#a)"><path fill="#2eeb83" d="M7.337 25a.64.64 0 0 1-.44-.16q-.179-.164-.286-.543L3.665 14.274H1v-2.682h3.168q.216 0 .403.207.185.204.283.547l2.483 8.337 5.61-19.066a.94.94 0 0 1 .303-.464.67.67 0 0 1 .423-.153.66.66 0 0 1 .412.156q.19.152.284.463l2.935 9.973h5.082v2.682h-5.544a.64.64 0 0 1-.44-.161q-.179-.164-.286-.54l-2.473-8.325L8.023 24.3q-.108.376-.29.536a.6.6 0 0 1-.396.164"/></g><defs><filter id="a" width="25.386" height="28" x="0" y="0" color-interpolation-filters="sRGB" filterUnits="userSpaceOnUse"><feFlood flood-opacity="0" result="BackgroundImageFix"/><feColorMatrix in="SourceAlpha" result="hardAlpha" values="0 0 0 0 0 0 0 0 0 0 0 0 0 0 0 0 0 0 127 0"/><feOffset dx="1" dy="1"/><feGaussianBlur stdDeviation="1"/><feComposite in2="hardAlpha" operator="out"/><feColorMatrix values="0 0 0 0 0 0 0 0 0 0 0 0 0 0 0 0 0 0 0.25 0"/><feBlend in2="BackgroundImageFix" result="effect1_dropShadow_2_2483"/><feBlend in="SourceGraphic" in2="effect1_dropShadow_2_2483" result="shape"/></filter></defs></svg>