<svg xmlns="http://www.w3.org/2000/svg" width="15" height="16" fill="none"><path fill="#333cf5" d="m7.5.42.197-.386a.58.58 0 0 0-.394 0zm0 15.127-.248.364a.57.57 0 0 0 .496 0zM7.302.034.909 2.337l.394.773L7.697.807zM0 3.496V9.26h1V3.496zm3.275 10.506 3.977 1.91.496-.73-3.977-1.91zm4.473 1.91 3.977-1.91-.496-.73-3.977 1.91zM15 9.258V3.496h-1v5.765zm-.91-6.922L7.697.034l-.394.773 6.394 2.303zm.91 1.16c0-.248-.086-.49-.248-.695a1.47 1.47 0 0 0-.662-.465l-.393.773a.5.5 0 0 1 .22.155.37.37 0 0 1 .083.231zm-3.275 10.505c.995-.478 1.822-1.168 2.397-2.001A4.8 4.8 0 0 0 15 9.259h-1c0 .815-.256 1.615-.743 2.32s-1.186 1.288-2.028 1.693zM0 9.26c0 .963.303 1.91.878 2.742s1.402 1.523 2.397 2.001l.496-.73c-.842-.405-1.541-.989-2.028-1.693A4.07 4.07 0 0 1 1 9.259zm.91-6.922c-.27.097-.5.259-.662.465A1.12 1.12 0 0 0 0 3.496h1c0-.168.12-.32.303-.386z"/></svg>